<svg xmlns="http://www.w3.org/2000/svg" width="37.131" height="37.131" viewBox="0 0 37.131 37.131">
  <path id="Path_11387" data-name="Path 11387" d="M6.52,35.242l.943.943,4.91,4.91,5.853,5.853a.69.69,0,0,0,.976,0l3.9-3.9,3.9-3.9L37.737,28.413a.69.69,0,1,0-.975-.975L26.519,37.681l-5.365-5.366L18.335,29.5,15.3,26.462a.689.689,0,0,0-.975,0l-3.9,3.9-3.9,3.9A.69.69,0,0,0,6.52,35.242Zm10.243,2.439,4.878,4.878-2.927,2.927-4.878-4.878Zm-1.951-9.756,2.546,2.546L19.69,32.8,16.764,35.73l-4.878-4.878Z" transform="translate(60.168 28.873) rotate(135)" fill="#00a1ed"/>
</svg>
