<svg xmlns="http://www.w3.org/2000/svg" width="31.856" height="31.856" viewBox="0 0 31.856 31.856">
  <g id="Group_2965" data-name="Group 2965" transform="translate(-30.269 -30.27)">
    <path id="Path_11386" data-name="Path 11386" d="M58.24,35.791a16.425,16.425,0,1,0,.008.009Zm-1.071.656-.236,5.683-4.706,1.588-5.368-3.88V34.857l5.593-1.944A14.746,14.746,0,0,1,57.169,36.447ZM51.4,44.637l-1.9,5.918-6.3-.011-2.058-5.915,5.1-3.718ZM46.2,31.5a14.646,14.646,0,0,1,4.526.72l-4.476,1.556L41.72,32.2A14.646,14.646,0,0,1,46.2,31.5Zm-6.214,1.4,5.651,1.964V39.84l-5.318,3.877-4.708-1.588-.286-5.788A14.756,14.756,0,0,1,39.983,32.894Zm-5.82,4.885.227,4.606L31.5,46.2A14.607,14.607,0,0,1,34.163,37.778ZM31.7,47.958l3.538-4.66,4.7,1.587,2.145,6.165L39.146,55l-5.767-1.638h-.008a14.592,14.592,0,0,1-1.75-5.337A.639.639,0,0,0,31.7,47.958Zm2.7,6.968,4.614,1.31,2.825,4A14.734,14.734,0,0,1,34.4,54.927Zm9.2,5.728a.583.583,0,0,0-.056-.127l-3.4-4.812,2.934-3.946,6.565.011,2.91,3.959-3.343,4.816a.361.361,0,0,0-.015.034,14.331,14.331,0,0,1-5.6.064Zm7.45-.594,2.64-3.8,4.247-1.243A14.741,14.741,0,0,1,51.046,60.06Zm7.935-6.629-5.436,1.59-2.914-3.963,1.981-6.176,4.7-1.584L60.8,47.837A14.587,14.587,0,0,1,58.981,53.431ZM58.151,42.38l.186-4.461a14.618,14.618,0,0,1,2.549,8.016Z" fill="#fff"/>
  </g>
</svg>
