<svg id="Group_2961" data-name="Group 2961" xmlns="http://www.w3.org/2000/svg" width="30.975" height="32.072" viewBox="0 0 30.975 32.072">
  <path id="Path_11350" data-name="Path 11350" d="M270.8,187.892c0,.476.008.939.022,1.394h-3.427a.617.617,0,0,0-.611.53c-.44,3.086.21,7.858,2.678,11.043a7.536,7.536,0,0,0,5.231,3.064,13,13,0,0,0,3.482,3.752v4.4h-2.063a2.394,2.394,0,0,0-2.63,2.629v4.022a.618.618,0,0,0,.617.617h16.09a.618.618,0,0,0,.617-.617v-4.022a2.393,2.393,0,0,0-2.629-2.629h-2.064v-4.4a13.009,13.009,0,0,0,3.482-3.752,7.529,7.529,0,0,0,5.23-3.064c2.468-3.185,3.118-7.958,2.678-11.043a.617.617,0,0,0-.611-.53h-3.426c.013-.455.022-.918.022-1.394a.618.618,0,0,0-.617-.617H271.414A.618.618,0,0,0,270.8,187.892Zm-.362,12.211a14.681,14.681,0,0,1-2.495-9.582h2.931a28.905,28.905,0,0,0,2.985,11.98A6.514,6.514,0,0,1,270.434,200.1Zm17.739,13.211c1,0,1.394.39,1.394,1.394v3.4H274.712v-3.4c0-1,.391-1.394,1.4-1.394h12.066Zm8.166-22.793a14.684,14.684,0,0,1-2.494,9.583,6.515,6.515,0,0,1-3.421,2.4,28.893,28.893,0,0,0,2.986-11.98Zm-4.094-2.011c-.191,14.3-6.982,18.244-7.049,18.281a.616.616,0,0,0-.322.542v4.746h-5.469v-4.746a.622.622,0,0,0-.32-.54c-.07-.039-6.86-3.981-7.05-18.283Z" transform="translate(-266.652 -187.275)" fill="#bdbdbd"/>
  <path id="Path_11351" data-name="Path 11351" d="M286.245,204.265a5.645,5.645,0,1,0-5.645-5.645A5.652,5.652,0,0,0,286.245,204.265Zm0-10.056a4.41,4.41,0,1,1-4.41,4.41A4.415,4.415,0,0,1,286.245,194.21Z" transform="translate(-270.757 -188.953)" fill="#bdbdbd"/>
  <path id="Path_11352" data-name="Path 11352" d="M287.392,201.077a.617.617,0,0,0,0,1.235h1.341a.617.617,0,1,0,0-1.235h-.054v-2.734a.617.617,0,0,0-.617-.617h-.67a.617.617,0,0,0,0,1.235h.053v2.117Z" transform="translate(-272.575 -190.351)" fill="#bdbdbd"/>
</svg>
