<svg xmlns="http://www.w3.org/2000/svg" width="414" height="580.825" viewBox="0 0 414 580.825">
  <g id="Group_2890" data-name="Group 2890" transform="translate(414 580.825) rotate(180)">
    <g id="Group_2879" data-name="Group 2879">
      <rect id="Rectangle_2374" data-name="Rectangle 2374" width="414" height="580.824" fill="#318d05"/>
      <rect id="Rectangle_2376" data-name="Rectangle 2376" width="414" height="52.664" transform="translate(0 119.54)" fill="#44ab00"/>
      <rect id="Rectangle_2377" data-name="Rectangle 2377" width="414" height="52.664" transform="translate(0 239.08)" fill="#44ab00"/>
      <rect id="Rectangle_2378" data-name="Rectangle 2378" width="414" height="52.664" transform="translate(0 358.619)" fill="#44ab00"/>
      <rect id="Rectangle_2379" data-name="Rectangle 2379" width="414" height="52.664" transform="translate(0 484.104)" fill="#44ab00"/>
    </g>
    <g id="Group_2889" data-name="Group 2889" transform="translate(19.617 40.58)">
      <g id="Group_2880" data-name="Group 2880">
        <path id="Path_11129" data-name="Path 11129" d="M-486.842,1589.415H-490.4V1053.2H-857.357v536.219h-3.558V1051.183a1.906,1.906,0,0,1,1.779-2.013h370.515a1.906,1.906,0,0,1,1.779,2.013Z" transform="translate(860.915 -1049.17)" fill="#98e29d"/>
      </g>
      <g id="Group_2881" data-name="Group 2881" transform="translate(132.688 465.248)">
        <path id="Path_11130" data-name="Path 11130" d="M-479.189,1962.3h-3.941a54.588,54.588,0,0,0,4.295-20.341,51.154,51.154,0,0,0-51.1-51.1,51.154,51.154,0,0,0-51.1,51.1,54.362,54.362,0,0,0,4.065,20.342h-3.711a50.764,50.764,0,0,1-3.913-20.342,54.716,54.716,0,0,1,54.655-54.655,54.717,54.717,0,0,1,54.656,54.655A50.763,50.763,0,0,1-479.189,1962.3Z" transform="translate(584.587 -1887.305)" fill="#98e29d"/>
      </g>
      <g id="Group_2882" data-name="Group 2882" transform="translate(183.297 511.747)">
        <path id="Path_11131" data-name="Path 11131" d="M-475.145,1992.233a4.051,4.051,0,0,1-4.046-4.047,4.049,4.049,0,0,1,4.046-4.045,4.05,4.05,0,0,1,4.047,4.045A4.052,4.052,0,0,1-475.145,1992.233Zm0-4.533a.488.488,0,0,0-.487.486c0,.541.976.537.976,0A.488.488,0,0,0-475.145,1987.7Z" transform="translate(479.191 -1984.141)" fill="#98e29d"/>
      </g>
      <g id="Group_2883" data-name="Group 2883">
        <path id="Path_11132" data-name="Path 11132" d="M-859.136,1074.874a1.779,1.779,0,0,1-1.779-1.779,1.779,1.779,0,0,1,1.779-1.779,20.389,20.389,0,0,0,20.366-20.367,1.779,1.779,0,0,1,1.779-1.779,1.779,1.779,0,0,1,1.78,1.779A23.952,23.952,0,0,1-859.136,1074.874Z" transform="translate(860.915 -1049.17)" fill="#98e29d"/>
      </g>
      <g id="Group_2884" data-name="Group 2884" transform="translate(348.37)">
        <path id="Path_11133" data-name="Path 11133" d="M-111.494,1074.874a23.952,23.952,0,0,1-23.925-23.925,1.778,1.778,0,0,1,1.779-1.779,1.778,1.778,0,0,1,1.779,1.779,20.389,20.389,0,0,0,20.366,20.367,1.779,1.779,0,0,1,1.779,1.779A1.779,1.779,0,0,1-111.494,1074.874Z" transform="translate(135.419 -1049.17)" fill="#98e29d"/>
      </g>
      <g id="Group_2885" data-name="Group 2885" transform="translate(134.195)">
        <path id="Path_11134" data-name="Path 11134" d="M-477.545,1087.8H-579.668a1.779,1.779,0,0,1-1.78-1.78v-35.071a1.779,1.779,0,0,1,1.78-1.779h102.124a1.778,1.778,0,0,1,1.779,1.779v35.071A1.779,1.779,0,0,1-477.545,1087.8Zm-100.344-3.559h98.565v-31.513h-98.565Z" transform="translate(581.448 -1049.17)" fill="#98e29d"/>
      </g>
      <g id="Group_2886" data-name="Group 2886" transform="translate(88.37)">
        <path id="Path_11135" data-name="Path 11135" d="M-481.326,1133.626H-675.1a1.779,1.779,0,0,1-1.779-1.779v-80.9a1.778,1.778,0,0,1,1.779-1.779h193.776a1.778,1.778,0,0,1,1.779,1.779v80.9A1.779,1.779,0,0,1-481.326,1133.626Zm-192-3.558h190.217v-77.339H-673.323Z" transform="translate(676.881 -1049.17)" fill="#98e29d"/>
      </g>
      <g id="Group_2887" data-name="Group 2887" transform="translate(140.44 82.053)">
        <path id="Path_11136" data-name="Path 11136" d="M-521.846,1239.733a64.958,64.958,0,0,1-46.075-19.053,1.778,1.778,0,0,1,0-2.516,1.779,1.779,0,0,1,2.516,0,61.677,61.677,0,0,0,87.119,0,1.779,1.779,0,0,1,2.516,0,1.778,1.778,0,0,1,0,2.516A64.956,64.956,0,0,1-521.846,1239.733Z" transform="translate(568.443 -1217.643)" fill="#98e29d"/>
      </g>
      <g id="Group_2888" data-name="Group 2888" transform="translate(0 514.012)">
        <path id="Path_11137" data-name="Path 11137" d="M-488.621,1992.418H-859.136a1.779,1.779,0,0,1-1.779-1.78,1.779,1.779,0,0,1,1.779-1.779h370.515a1.779,1.779,0,0,1,1.779,1.779A1.779,1.779,0,0,1-488.621,1992.418Z" transform="translate(860.915 -1988.859)" fill="#98e29d"/>
      </g>
    </g>
  </g>
</svg>
