<svg id="Group_2962" data-name="Group 2962" xmlns="http://www.w3.org/2000/svg" width="32.072" height="31.948" viewBox="0 0 32.072 31.948">
  <path id="Path_11358" data-name="Path 11358" d="M139.8,213.117a.618.618,0,0,0-.617-.617h-8.767v-4.746a.617.617,0,0,0-.617-.617H117.728a.617.617,0,0,0-.617.617v7.427h-8.768a.617.617,0,0,0-.617.617v8.715a.617.617,0,0,0,.617.617h30.837a.618.618,0,0,0,.617-.617ZM138.562,223.9h-29.6v-7.48h8.768a.617.617,0,0,0,.617-.617v-7.427h10.832v4.746a.617.617,0,0,0,.617.617h8.767Z" transform="translate(-107.725 -193.183)" fill="#bdbdbd"/>
  <path id="Path_11359" data-name="Path 11359" d="M130.583,214.29h-.054v-2.734a.617.617,0,0,0-1.054-.438l-.67.67a.618.618,0,0,0,.489,1.052v1.449h-.052a.617.617,0,1,0,0,1.235h1.341a.617.617,0,1,0,0-1.235Z" transform="translate(-113.877 -194.302)" fill="#bdbdbd"/>
  <path id="Path_11360" data-name="Path 11360" d="M116.053,225.689h-.971c.112-.073.247-.15.407-.237.524-.286,1.243-.677,1.18-1.539a1.656,1.656,0,0,0-3.227-.438.617.617,0,1,0,1.2.3c.016-.061.052-.2.408-.2.222,0,.358.02.392.434a2.022,2.022,0,0,1-.542.362,2.225,2.225,0,0,0-1.474,1.938.617.617,0,0,0,.617.617h2.012a.617.617,0,0,0,0-1.235Z" transform="translate(-109.402 -197.657)" fill="#bdbdbd"/>
  <path id="Path_11361" data-name="Path 11361" d="M143.552,223.144h.068a1.546,1.546,0,0,0,1.635-1.241,1.517,1.517,0,0,0-.361-1.217,1.319,1.319,0,0,0,.081-1.054,1.551,1.551,0,0,0-1.575-1.088,1.324,1.324,0,0,0-1.257,1.041.617.617,0,1,0,1.21.245c.009-.045.118-.054.119-.054a.324.324,0,0,1,.33.244c.037.111-.106.2-.141.221a.615.615,0,0,0-.327.61.629.629,0,0,0,.449.538.322.322,0,0,1,.249.368.745.745,0,0,1-.637.137c-.1-.019-.229-.063-.245-.158a.618.618,0,0,0-1.219.2A1.52,1.52,0,0,0,143.552,223.144Z" transform="translate(-117.791 -196.54)" fill="#bdbdbd"/>
  <path id="Path_11362" data-name="Path 11362" d="M127.727,200.415a6.517,6.517,0,0,0,4.938-10.782l-.024-.026a6.523,6.523,0,1,0-4.914,10.808Zm-4.69-4.086a5.24,5.24,0,0,1-.531-1.622l1.13-1.489,1.378.465.7,2.013-.856,1.152ZM124.406,198l.315.09.189.268A5.165,5.165,0,0,1,124.406,198Zm2.55,1.116-1.094-1.55.853-1.147,2.147,0,.848,1.154-1.053,1.516a5.271,5.271,0,0,1-.931.087A5.332,5.332,0,0,1,126.956,199.118Zm-.724-5.693,1.515-1.1,1.541,1.113-.563,1.756-1.881,0Zm6.568-1.034-.076-.1,0-.117C132.754,192.249,132.779,192.32,132.8,192.391Zm.162,2.235a5.25,5.25,0,0,1-.557,1.731l-1.694.5-.851-1.158.646-2.015,1.372-.462Zm-2.183,3.579.073-.107.113-.033Q130.873,198.138,130.779,198.205Zm.72-6.163-1.382.466-1.753-1.267v-1.456l1.754-.61a5.3,5.3,0,0,1,1.455,1.091Zm-3.772-3.445c.086,0,.169.009.254.013l-.234.081-.24-.083C127.58,188.606,127.653,188.6,127.727,188.6Zm-2.375.569,1.777.618v1.457l-1.736,1.266-1.384-.467-.09-1.817A5.324,5.324,0,0,1,125.352,189.167Zm-2.579,2.881.012.249-.16.211Q122.689,192.275,122.773,192.049Z" transform="translate(-111.692 -187.363)" fill="#bdbdbd"/>
</svg>
