<svg id="Group_2964" data-name="Group 2964" xmlns="http://www.w3.org/2000/svg" width="32.073" height="31.569" viewBox="0 0 32.073 31.569">
  <path id="Path_11384" data-name="Path 11384" d="M366.349,29.956a.618.618,0,0,0-.617.617c0,1.9-2.387,2.9-4.746,2.9s-4.746-1-4.746-2.9a.617.617,0,0,0-.617-.617c-7.182,0-10.673,4.807-10.673,14.695a.617.617,0,0,0,.422.586,21.244,21.244,0,0,0,5.429.7,115.823,115.823,0,0,0,.855,13.51c.093,1.715,5.114,2.077,9.332,2.077s9.238-.362,9.331-2.077a115.692,115.692,0,0,0,.856-13.51,21.239,21.239,0,0,0,5.427-.7.616.616,0,0,0,.422-.586C377.022,34.763,373.531,29.956,366.349,29.956Zm4.79,14.747c-.03-.751-.08-1.468-.155-2.131a.617.617,0,1,0-1.227.136c.64,5.752-.595,16.012-.665,16.59-.447.411-3.248.992-8.106.992s-7.659-.581-8.106-.992c-.07-.578-1.3-10.835-.665-16.59a.618.618,0,1,0-1.228-.136c-.073.663-.124,1.381-.154,2.131a22.415,22.415,0,0,1-4.646-.512c.1-8.6,2.926-12.747,8.872-12.989.422,2.4,3.269,3.508,5.927,3.508s5.5-1.1,5.928-3.508c5.945.242,8.775,4.39,8.872,12.989A22.429,22.429,0,0,1,371.139,44.7Z" transform="translate(-344.949 -29.956)" fill="#bdbdbd"/>
  <path id="Path_11385" data-name="Path 11385" d="M364.077,51.267V49.241h4.746a.617.617,0,1,0,0-1.235H363.46a.617.617,0,0,0-.617.617v3.352a.617.617,0,0,0,.726.608,4.613,4.613,0,0,1,4.042.79,2.058,2.058,0,0,1,.6,1.86,1.974,1.974,0,0,1-1.3,1.542,3.716,3.716,0,0,1-3.464-.475.617.617,0,0,0-.741.988,4.969,4.969,0,0,0,2.948.956,4.584,4.584,0,0,0,1.723-.326,3.212,3.212,0,0,0,2.049-2.5,3.29,3.29,0,0,0-.959-2.932A5.44,5.44,0,0,0,364.077,51.267Z" transform="translate(-350.105 -35.269)" fill="#bdbdbd"/>
</svg>
